<svg height="511pt" viewBox="-78 0 511 511.998" width="511pt" xmlns="http://www.w3.org/2000/svg"><path d="m268.222656 375.972656h-217.765625c-5.523437 0-10-4.476562-10-10v-222.445312c0-5.523438 4.476563-10 10-10h217.765625c5.523438 0 10 4.476562 10 10v222.445312c0 5.523438-4.476562 10-10 10zm-207.765625-20h197.765625v-202.445312h-197.765625zm0 0"/><path d="m159.339844 335.675781c-44.621094 0-80.925782-36.304687-80.925782-80.925781 0-44.625 36.304688-80.929688 80.925782-80.929688s80.921875 36.304688 80.921875 80.929688c0 44.621094-36.300781 80.925781-80.921875 80.925781zm0-141.851562c-33.59375 0-60.925782 27.328125-60.925782 60.925781s27.332032 60.925781 60.925782 60.925781 60.921875-27.332031 60.921875-60.925781-27.328125-60.925781-60.921875-60.925781zm0 0"/><path d="m144.253906 297.855469c-3.378906 0-6.761718-.851563-9.804687-2.566407-6.273438-3.535156-10.175781-10.207031-10.175781-17.410156v-46.257812c0-7.207032 3.898437-13.875 10.175781-17.410156 6.277343-3.535157 14.003906-3.414063 20.164062.320312l38.160157 23.128906c6.023437 3.652344 9.621093 10.042969 9.621093 17.089844s-3.597656 13.433594-9.621093 17.085938l-38.160157 23.132812c-3.175781 1.921875-6.765625 2.886719-10.359375 2.886719zm.023438-66.203125-.003906 46.191406 38.132812-23.109375c.023438-.015625.035156-.023437.035156-.023437zm43.3125 31.632812h.007812zm0 0"/><path d="m345.136719 221.1875c5.523437 0 10-4.476562 10-10v-54.730469c0-5.523437-4.476563-10-10-10h-26.957031v-15.550781c0-20.589844-16.75-37.339844-37.339844-37.339844h-19.601563v-69.316406c0-13.371094-10.878906-24.25-24.25-24.25h-155.296875c-13.375 0-24.253906 10.878906-24.253906 24.25v69.316406h-19.601562c-20.589844 0-37.335938 16.75-37.335938 37.335938v247.691406c0 20.585938 16.746094 37.335938 37.335938 37.335938h19.601562v71.816406c0 13.371094 10.878906 24.25 24.253906 24.25h155.296875c13.371094 0 24.25-10.878906 24.25-24.25v-71.816406h19.605469c20.585938 0 37.335938-16.75 37.335938-37.335938v-64.253906h26.960937c5.519531 0 10-4.480469 10-10v-54.734375c0-5.523438-4.480469-10-10-10h-26.960937v-18.417969zm-10-54.730469v34.730469h-16.957031v-34.730469zm-257.699219-86.519531h92.296875c5.519531 0 10-4.476562 10-10s-4.480469-10-10-10h-92.296875v-35.6875c0-2.34375 1.910156-4.25 4.253906-4.25h155.296875c2.34375 0 4.25 1.90625 4.25 4.25v69.316406h-163.800781zm163.800781 407.8125c0 2.34375-1.90625 4.25-4.25 4.25h-155.296875c-2.34375 0-4.253906-1.90625-4.253906-4.25v-71.816406h163.800781zm56.941407-109.15625c0 9.558594-7.777344 17.335938-17.339844 17.335938h-243.003906c-9.558594 0-17.335938-7.777344-17.335938-17.335938v-247.6875c0-9.5625 7.777344-17.339844 17.335938-17.339844h243.007812c9.558594 0 17.335938 7.777344 17.335938 17.339844zm36.957031-118.988281v34.734375h-16.957031v-34.734375zm0 0"/><path d="m212.019531 79.941406c-.652343 0-1.3125-.070312-1.949219-.203125-.640624-.128906-1.273437-.316406-1.882812-.566406-.597656-.25-1.179688-.5625-1.71875-.921875-.550781-.359375-1.0625-.78125-1.519531-1.238281-1.859375-1.863281-2.929688-4.441407-2.929688-7.070313 0-.652344.066407-1.3125.199219-1.960937.117188-.628907.316406-1.261719.566406-1.871094.25-.597656.550782-1.179687.910156-1.71875.371094-.550781.792969-1.0625 1.25-1.519531.460938-.460938.972657-.882813 1.523438-1.25.539062-.359375 1.117188-.660156 1.71875-.910156.609375-.25 1.238281-.449219 1.878906-.582032 1.28125-.257812 2.609375-.257812 3.902344 0 .640625.132813 1.269531.332032 1.867188.582032.609374.25 1.191406.550781 1.730468.910156.550782.367187 1.0625.789062 1.519532 1.25.460937.457031.882812.96875 1.242187 1.519531.359375.539063.667969 1.121094.917969 1.71875.25.609375.449218 1.242187.570312 1.871094.128906.648437.199219 1.308593.199219 1.960937 0 2.628906-1.070313 5.207032-2.929687 7.070313-.460938.457031-.96875.878906-1.519532 1.238281-.539062.359375-1.121094.671875-1.730468.921875-.601563.25-1.230469.4375-1.871094.566406-.636719.132813-1.296875.203125-1.945313.203125zm0 0"/></svg>