<svg height="496pt" viewBox="0 0 496 496" width="496pt" xmlns="http://www.w3.org/2000/svg"><path d="m496 344c0-69.953125-47.558594-128.855469-112-146.480469v-157.519531c0-22.054688-17.945312-40-40-40h-304c-22.054688 0-40 17.945312-40 40v416c0 22.054688 17.945312 40 40 40h312v-.40625c80.089844-4.203125 144-70.480469 144-151.59375zm-416-104h-64v-48h64zm16-50.792969 85.441406-93.207031h186.558594v48h-165.441406l-88 96h-18.558594zm272-149.207031v40h-193.601562l-78.398438 85.527344v-149.527344h248c13.230469 0 24 10.769531 24 24zm-328-24h40v160h-64v-136c0-13.230469 10.769531-24 24-24zm-24 440v-200h64v224h-40c-13.230469 0-24-10.769531-24-24zm80 24v-224h25.601562l88-96h158.398438v34.089844c-7.839844-1.257813-15.816406-2.089844-24-2.089844-83.816406 0-152 68.183594-152 152 0 59.558594 34.519531 111.089844 84.527344 136zm248 0c-74.992188 0-136-61.007812-136-136s61.007812-136 136-136 136 61.007812 136 136-61.007812 136-136 136zm0 0"/><path d="m240 344h-16c0 5.726562.40625 11.496094 1.214844 17.136719l15.832031-2.265625c-.695313-4.894532-1.046875-9.894532-1.046875-14.871094zm0 0"/><path d="m244.304688 373.71875-15.335938 4.5625c15.023438 50.472656 62.328125 85.71875 115.03125 85.71875v-16c-45.679688 0-86.679688-30.542969-99.695312-74.28125zm0 0"/><path d="m344 272c-39.695312 0-72 32.296875-72 72s32.304688 72 72 72 72-32.296875 72-72-32.304688-72-72-72zm0 128c-30.878906 0-56-25.128906-56-56s25.121094-56 56-56 56 25.128906 56 56-25.121094 56-56 56zm0 0"/><path d="m344 304c-22.054688 0-40 17.945312-40 40s17.945312 40 40 40 40-17.945312 40-40-17.945312-40-40-40zm0 64c-13.230469 0-24-10.769531-24-24s10.769531-24 24-24 24 10.769531 24 24-10.769531 24-24 24zm0 0"/></svg>